<svg width="114" height="42" viewBox="0 0 114 42" fill="none" xmlns="http://www.w3.org/2000/svg">
<path d="M107.555 21.8052C104.482 21.5762 99.6122 24.4087 98.4521 26.2163C98.3182 26.2244 98.1747 26.2363 98.0212 26.2521C96.2722 26.4325 89.9673 26.86 89.1785 26.8835C87.9942 26.9189 86.7819 26.9918 85.5722 27.0735C86.792 26.6507 87.9588 26.107 89.1201 25.5484C92.1592 24.0867 93.8559 21.1443 93.5596 17.5352C93.3956 15.5384 91.7343 12.5433 89.1201 13.5904C87.9917 14.0424 87.0213 15.2367 86.2125 16.2322C86.057 16.4236 85.9075 16.6076 85.7639 16.7776C83.3558 19.6298 81.1088 23.7416 80.1705 27.4054C75.9228 27.5645 71.8054 26.7157 67.6093 26.2521C65.3891 25.9524 63.1961 25.6564 61.0255 25.2535C65.6277 24.4038 73.0683 20.2457 73.6254 16.9347C73.8971 15.3202 73.8227 13.5689 72.0876 12.7497C70.7454 12.1161 68.8084 12.4727 67.503 12.9715C65.2196 13.8439 63.2465 15.4918 61.6224 17.2211C59.6274 19.3454 58.5596 21.7994 58.1285 24.6393C57.522 24.4925 56.917 24.3333 56.3136 24.1592C53.3561 23.3058 50.5067 22.1681 47.6118 21.0122C46.8535 20.7094 46.0919 20.4053 45.3246 20.1048C44.9533 19.9594 44.5815 19.8154 44.2099 19.6709C42.6098 19.0663 41.0136 18.4312 39.4595 17.7173C42.6672 18.0819 47.5981 17.1964 50.0161 14.6342C52.1823 12.3388 51.013 8.81406 47.8301 8.81406C43.2852 8.81406 39.5474 13.441 37.2312 16.638C34.1667 15.1596 31.0816 13.8632 27.8848 12.6546C26.8107 12.2484 25.6452 11.7655 24.4433 11.2675C24.0281 11.0952 23.6127 10.9233 23.1969 10.7526C23.6498 10.7111 24.1226 10.6391 24.5546 10.5732C26.5637 10.2671 28.7183 10.3803 30.5657 9.4516C32.0954 8.68261 33.57 7.3949 34.6183 6.09807C35.4853 5.02563 35.9619 3.38872 35.3921 2.08862C34.6517 0.399212 32.6111 -0.0204253 30.9043 0.000748023C26.3322 0.0574634 20.9882 6.20306 19.9538 9.47924C18.7685 9.04565 17.6128 8.67035 16.5386 8.41152C11.3775 7.16801 5.3131 5.70968 0.770891 4.92764C0.203204 4.92764 -0.502506 9.25088 0.518915 9.48387C1.10185 9.55473 1.64926 9.62149 2.16498 9.68439C6.57958 10.2228 8.67179 10.4779 10.836 10.5968C14.3216 10.7882 19.2651 11.9769 23.0687 13.1049C23.0489 15.6793 22.7779 18.2085 22.4605 20.7686C22.0863 23.7873 21.3987 30.4458 26.0295 31.0601C27.5921 31.2674 29.2745 30.8317 30.498 29.8868C32.3871 28.428 33.1849 27.003 32.887 24.6949C32.6141 22.5806 30.639 19.6141 29.3781 17.8677C28.9158 17.2275 28.3871 16.6214 27.8581 16.0149C27.3264 15.4053 26.7943 14.7954 26.3291 14.15C26.6436 14.2602 26.9328 14.3653 27.1929 14.4637C30.7406 15.805 34.1347 17.2505 37.5099 18.9326C39.1967 19.7732 40.9455 20.4779 42.6737 21.152C42.5915 23.057 42.4984 26.492 42.7814 28.3625C42.799 28.4792 42.8173 28.6025 42.8363 28.7315C43.2556 31.5676 44.086 37.185 48.2267 36.3168C49.3075 36.0902 50.2614 35.4264 50.9059 34.58C51.7777 33.435 51.6071 32.2098 51.4254 30.905C51.3998 30.7212 51.3739 30.5358 51.3508 30.3488C51.1581 28.7929 50.7835 27.204 49.9387 25.8405C49.3348 24.8658 48.5586 24.0049 47.7641 23.1588C50.374 24.1978 53.0345 25.2284 55.7711 26.018C57.1967 26.4293 58.6447 26.7626 60.1024 27.0461C59.8984 27.7561 60.4491 29.8501 60.9315 31.6842C61.1065 32.3494 61.2725 32.9806 61.3902 33.4989C62.0899 36.5805 63.8168 41.2114 67.8318 41.2407C68.9973 41.2492 71.7074 41.017 71.9617 39.5593C72.1988 38.2007 71.7418 36.5718 71.188 35.3374C69.5973 31.7921 65.5624 28.8718 63.1592 27.576C64.6181 27.8031 66.0779 28.0006 67.5261 28.1965C69.3216 28.4393 71.0992 28.6798 72.8353 28.9714C75.6295 29.4406 78.318 29.4584 81.0505 29.3226C81.962 29.2773 82.9282 29.1813 83.906 29.0634C83.5115 29.8424 83.4134 31.3606 83.3683 32.0593C83.3635 32.1333 83.3593 32.198 83.3555 32.2518C83.27 33.4354 83.4742 34.7591 83.8391 35.8917C84.9421 39.3159 88.4287 41.1542 91.9829 41.9151C93.192 42.174 95.2974 41.8482 96.1129 40.8342C96.5707 40.2649 96.5554 39.555 96.5407 38.8746C96.5399 38.8379 96.5391 38.8013 96.5384 38.7648C96.4677 35.1493 91.9295 32.1096 88.5182 29.8246C87.9088 29.4164 87.3353 29.0322 86.8297 28.6732C88.492 28.4429 90.0592 28.2337 91.3053 28.1965C92.7595 28.1531 96.3054 27.7257 98.4131 27.3104C99.4406 28.0836 104.089 28.5986 106.742 28.5986C106.932 28.5986 107.122 28.5996 107.309 28.6006C109.587 28.6131 111.663 28.6245 113.268 26.7738C114.804 25.0015 113.704 24.1937 111.982 23.1422C110.734 22.3801 109.014 21.9139 107.555 21.8052Z" fill="#A8BB7F"/>
</svg>
