<svg width="37" height="38" viewBox="0 0 37 38" fill="none" xmlns="http://www.w3.org/2000/svg">
<path d="M18.9919 0C3.31957 0 0 2.40486 0 18.9294C0 36.8519 5.66743 38 18.5359 38C34.6994 38 36.4583 36.3443 36.4583 19.0461C36.4583 1.748 33.5269 0 18.9919 0ZM14.3477 28.2313L14.2989 28.2557L11.3186 28.8664C11.2453 28.9669 11.1666 29.317 11.1204 29.5097C11.0716 29.7187 11.0254 29.9169 10.9576 30.0797L10.6074 32.566L10.5776 32.6257C10.4663 32.8456 10.2464 32.984 9.99943 32.984C9.75243 32.984 9.53257 32.8483 9.42129 32.6257L9.39143 32.566L9.04129 30.0797C8.97072 29.9169 8.92457 29.7187 8.87843 29.5097C8.835 29.3197 8.75629 28.9777 8.67486 28.8664L5.7 28.2557L5.65114 28.2313C5.43129 28.12 5.29557 27.9001 5.29557 27.6531C5.29557 27.4061 5.43129 27.1863 5.65114 27.075L5.7 27.0506L8.68029 26.4399C8.75357 26.3394 8.83229 25.9893 8.87843 25.7966C8.92729 25.5876 8.97343 25.3894 9.04129 25.2266L9.39143 22.7403L9.42129 22.6806C9.53257 22.4607 9.75243 22.3223 9.99943 22.3223C10.2464 22.3223 10.4663 22.458 10.5776 22.6806L10.6074 22.7403L10.9576 25.2266C11.0281 25.3894 11.0716 25.5876 11.1204 25.7966C11.1639 25.9866 11.2453 26.3286 11.324 26.4399L14.2989 27.0506L14.3477 27.075C14.5676 27.1863 14.706 27.4061 14.706 27.6531C14.706 27.9001 14.5703 28.12 14.3477 28.2313ZM9.91529 10.3713H9.86915L9.91529 19.076H5.86014V3.81629H10.3279L16.169 12.3391H16.2151L16.169 3.81629H20.2241V16.815C19.589 17.0539 18.924 17.3769 18.2536 17.8084C17.6591 18.1939 17.1489 18.6254 16.7119 19.0733H15.8026L9.91529 10.3686V10.3713ZM30.8859 33.6354H29.0293L28.3643 31.3663C27.4713 32.718 25.8889 33.9557 23.0959 33.9557C18.7883 33.9557 16.3156 31.3446 16.3156 27.037V25.0203C16.3156 20.8267 19.1791 18.0337 23.8993 18.0337C28.1146 18.0337 30.6579 20.026 30.6579 23.4623V23.7609H26.258V23.5546C26.258 22.5014 25.5713 21.6519 23.8993 21.6519C21.8364 21.6519 20.8294 23.0714 20.8294 25.1126V26.923C20.8294 29.0999 21.7224 30.4516 23.8314 30.4516C25.5034 30.4516 26.6027 29.5124 26.7194 28.1146H23.788V25.2971H30.8913V33.6354H30.8859ZM31.7653 11.0851L31.7164 11.1096L28.7362 11.7203C28.6629 11.8207 28.5842 12.1709 28.538 12.3636C28.4892 12.5726 28.443 12.7707 28.3752 12.9336L28.025 15.4199L27.9952 15.4796C27.8839 15.6994 27.664 15.8379 27.417 15.8379C27.17 15.8379 26.9474 15.7021 26.8389 15.4796L26.809 15.4199L26.4589 12.9336C26.3883 12.7707 26.3421 12.5726 26.296 12.3636C26.2526 12.1736 26.1739 11.8316 26.0924 11.7203L23.1176 11.1096L23.0687 11.0851C22.8489 10.9739 22.7131 10.754 22.7131 10.507C22.7131 10.26 22.8489 10.0401 23.0687 9.92886L23.1176 9.90443L26.0979 9.29372C26.1712 9.19329 26.2499 8.84315 26.296 8.65043C26.3449 8.44143 26.391 8.24329 26.4589 8.08043L26.809 5.59414L26.8389 5.53443C26.9501 5.31457 27.17 5.17614 27.417 5.17614C27.664 5.17614 27.8839 5.31186 27.9952 5.53443L28.025 5.59414L28.3752 8.08043C28.4457 8.24329 28.4892 8.44143 28.538 8.65043C28.5814 8.84043 28.6629 9.18243 28.7416 9.29372L31.7164 9.90443L31.7653 9.92886C31.9852 10.0401 32.1236 10.26 32.1236 10.507C32.1236 10.754 31.9879 10.9739 31.7653 11.0851Z" fill="#3D3672"/>
</svg>
