<svg width="41" height="37" viewBox="0 0 41 37" fill="none" xmlns="http://www.w3.org/2000/svg">
<path d="M19.9658 36.7545V34.9983L22.4303 34.4024V18.7533L20.3971 18.3456V16.4326H26.928L34.5064 28.8202L35.1225 30.2314H35.3073V18.7847L32.7504 18.2202V16.4326H40.7293V18.2202L38.2647 18.7847V36.7545H34.4756L26.1579 23.1438L25.5726 21.8894H25.3877V34.4024L27.9446 34.9983V36.7545H19.9658Z" fill="#165274"/>
<path d="M11.6023 31.453C11.2407 31.453 10.8967 31.4181 10.5706 31.3482C10.2515 31.2784 9.96781 31.1619 9.71962 30.9989C9.47143 30.8282 9.27643 30.607 9.13461 30.3353C8.99279 30.0559 8.92188 29.7066 8.92188 29.2874C8.92188 29.0158 8.96088 28.7713 9.03888 28.5539C9.12397 28.3289 9.22679 28.1309 9.34734 27.9602C9.47498 27.7894 9.60617 27.6458 9.7409 27.5294C9.88272 27.4052 10.0139 27.3043 10.1345 27.2267C9.90045 26.924 9.71608 26.6368 9.58135 26.3651C9.45371 26.0857 9.38989 25.7791 9.38989 25.4453C9.38989 25.0728 9.46789 24.7429 9.62389 24.4557C9.7799 24.1607 10.0139 23.9279 10.3259 23.7571C10.645 23.5864 11.0492 23.501 11.5385 23.501C11.737 23.501 11.9462 23.5204 12.1661 23.5592C12.3859 23.598 12.5844 23.6446 12.7617 23.6989C12.9461 23.7455 13.0773 23.7882 13.1553 23.827V25.8645H12.4213L12.198 24.5605C12.1412 24.5294 12.0455 24.5023 11.9108 24.479C11.7831 24.4557 11.6271 24.444 11.4428 24.444C11.1237 24.444 10.9074 24.5255 10.7939 24.6885C10.6805 24.8438 10.6237 25.0378 10.6237 25.2707C10.6237 25.4026 10.6379 25.5229 10.6663 25.6316C10.6946 25.7403 10.7514 25.8567 10.8365 25.9809C10.9287 26.1051 11.0563 26.2642 11.2194 26.4582L13.5488 29.1012C13.6126 28.8605 13.6445 28.6316 13.6445 28.4142C13.6445 28.2357 13.6339 28.0844 13.6126 27.9602C13.5914 27.836 13.5665 27.739 13.5382 27.6691L12.5383 27.4479V26.7959H14.3891C14.4246 26.9356 14.4636 27.1568 14.5061 27.4595C14.5487 27.7622 14.5699 28.1038 14.5699 28.4841C14.5699 28.6859 14.5416 28.9071 14.4848 29.1477C14.4281 29.3883 14.3395 29.6251 14.2189 29.8579L14.6231 30.312L15.5485 30.5216V31.2551H14.1657C14.0523 31.2551 13.9353 31.2357 13.8147 31.1969C13.6942 31.1503 13.5914 31.0843 13.5063 30.9989L13.3786 30.8825C13.1588 31.0533 12.9 31.1891 12.6022 31.29C12.3043 31.3987 11.971 31.453 11.6023 31.453ZM11.8044 30.5099C12.003 30.5099 12.1838 30.4867 12.3469 30.4401C12.5171 30.3857 12.666 30.312 12.7936 30.2189L10.7088 27.902C10.6379 27.9796 10.5706 28.0766 10.5067 28.193C10.4429 28.3017 10.3862 28.4336 10.3365 28.5889C10.294 28.7441 10.2727 28.9226 10.2727 29.1244C10.2727 29.4272 10.3295 29.6833 10.4429 29.8929C10.5635 30.1024 10.7336 30.2577 10.9535 30.3586C11.1804 30.4595 11.464 30.5099 11.8044 30.5099Z" fill="#165274"/>
<path d="M9.90883 20.8502C6.9094 20.8502 4.66969 20.0282 3.1897 18.3842C1.70972 16.7204 0.969727 14.3139 0.969727 11.1646C0.969727 9.44141 1.21639 7.92618 1.70972 6.61893C2.20305 5.29187 2.91344 4.18269 3.8409 3.29138C4.76835 2.38026 5.86354 1.69693 7.12646 1.24137C8.40911 0.766003 9.81016 0.52832 11.3296 0.52832C12.6715 0.52832 13.7963 0.637258 14.704 0.855133C15.6314 1.07301 16.3912 1.27108 16.9832 1.44934V6.79719H14.7632L14.1416 3.58848C13.7667 3.41022 13.3424 3.27157 12.8688 3.17254C12.4149 3.0735 11.9315 3.02399 11.4184 3.02399C9.40563 3.02399 7.95525 3.62809 7.06726 4.83631C6.199 6.04453 5.76487 8.01532 5.76487 10.7487C5.76487 12.7095 5.94247 14.2446 6.29767 15.3538C6.65287 16.4629 7.18566 17.2453 7.89605 17.7009C8.60644 18.1564 9.5043 18.3842 10.5896 18.3842C10.9251 18.3842 11.2408 18.3743 11.5368 18.3545C11.8328 18.3149 12.0992 18.2654 12.336 18.2059C12.5728 18.1465 12.78 18.0871 12.9576 18.0277V12.6204L10.5896 12.0559V10.3921H18.6407V12.0559L17.1607 12.6204V20.3154H15.74L15.1184 19.5429H14.852C14.2994 19.8796 13.6285 20.1767 12.8392 20.4342C12.0696 20.7115 11.0928 20.8502 9.90883 20.8502Z" fill="#165274"/>
<path fill-rule="evenodd" clip-rule="evenodd" d="M34.9862 3.6204H19.9658V0.969727H37.6368V13.7813H34.9862V3.6204Z" fill="#165274"/>
<path fill-rule="evenodd" clip-rule="evenodd" d="M5.82811 34.1032H17.5352V36.7539H3.17746V23.0588H5.82811V34.1032Z" fill="#165274"/>
</svg>
