<svg width="22" height="24" viewBox="0 0 22 24" fill="none" xmlns="http://www.w3.org/2000/svg">
<path fill-rule="evenodd" clip-rule="evenodd" d="M5.2841 0.686034C5.38365 0.260755 11.498 -0.162621 13.6593 0.0625493C13.8559 0.0625493 13.8435 0.287716 14.0278 1.05133C14.1333 1.03632 14.2364 1.02028 14.3361 1.00276C14.6093 0.954729 14.8439 0.880742 15.0197 0.825321C15.0997 0.800106 15.1674 0.778733 15.2211 0.765398C16.512 0.0758966 17.6721 0.627794 18.6167 1.51912C18.9554 1.83873 19.2154 2.27883 19.3374 2.74827C19.6909 4.109 19.3269 5.52661 18.587 6.30754C18.5637 6.33218 18.5406 6.35678 18.5176 6.38124C18.2694 6.64536 18.036 6.89372 17.6995 6.99715C17.234 7.2667 16.7717 7.33763 16.3293 7.40264C15.9084 7.46447 15.4998 7.45114 15.1006 7.43812C14.5858 7.42132 13.2518 7.45654 13.4921 8.29483C13.7121 9.06197 15.1031 8.64084 16.191 8.82362C16.8954 8.94195 17.5628 9.05408 17.9494 9.23166C18.8246 9.63382 19.4025 10.0187 19.9187 10.8275C21.2929 12.9807 22.4557 15.6861 21.4874 18.3198C21.0269 19.5723 19.8464 21.7396 17.9494 22.5181C13.2896 24.4302 6.30593 24.9889 4.6104 21.1349C3.56061 18.7488 3.4821 15.527 4.77647 13.2402C5.03874 12.7768 5.37145 12.386 5.697 12.0037C6.26424 11.3374 7.56198 10.7268 7.26405 9.74483C7.11705 9.26035 6.09704 9.18078 5.65007 9.16306C5.45527 9.15533 5.25838 9.14753 5.06037 9.14214C4.56074 9.12854 4.07678 9.11421 3.59772 9.06197C3.23084 9.02197 2.91625 8.93239 2.56432 8.82362C1.66238 8.5407 1.14224 7.81421 0.735138 6.96849C0.582609 6.65164 0.506426 6.29319 0.500419 5.92994C0.495866 5.65606 0.52795 5.38322 0.620324 5.12126C0.993024 4.06461 1.61432 3.22829 2.49024 2.66322C2.56487 2.61508 2.63752 2.56471 2.70981 2.5146C2.90749 2.37756 3.10242 2.24243 3.32755 2.15981C3.85386 1.82652 4.46906 1.84465 5.10695 1.90443C5.16836 1.91019 5.22968 1.91752 5.29083 1.92626C5.23447 1.41634 5.22092 0.955991 5.2841 0.686034ZM4.01563 3.64894C3.59772 3.73154 2.85396 3.96809 2.49024 4.55866C2.29656 4.87312 2.24265 5.09357 2.20797 5.46125C2.14543 6.12449 2.54417 6.94148 2.69527 7.09603C2.7187 7.11882 2.73737 7.13878 2.76554 7.16492C3.31796 7.6774 4.32095 7.46542 4.66453 7.5069C5.20704 7.57237 5.74772 7.3598 6.24342 7.16492C6.3602 7.11901 6.48289 7.13355 6.58571 7.03399C6.76342 6.86192 6.40401 6.093 6.41375 5.77796C6.24342 4.55866 5.86173 3.28405 4.01563 3.64894ZM13.1185 6.02418C12.9956 5.77796 13.2324 4.01145 13.2954 3.55142C13.3581 3.49755 13.4238 3.4371 13.4921 3.37434C13.7086 3.1754 13.9503 2.95333 14.1957 2.84463C14.2211 2.83335 14.2464 2.82208 14.2716 2.81087C15.4754 2.27454 17.3864 1.88169 17.6995 3.55142C18.0126 5.22114 17.3516 5.22399 16.7519 5.69934C15.6756 6.17799 15.3394 6.38124 13.9855 6.30754C13.7233 6.30754 13.2479 6.28371 13.1185 6.02418Z" fill="#60762F"/>
</svg>
