<svg width="26" height="24" viewBox="0 0 26 24" fill="none" xmlns="http://www.w3.org/2000/svg">
<path fill-rule="evenodd" clip-rule="evenodd" d="M9.55328 9.38317C9.13761 8.54239 8.93743 8.2692 8.64292 7.51192C8.03967 5.96077 7.26367 4.47715 6.67053 2.93501C6.50595 2.5071 6.04811 1.2252 5.76018 0.937322C5.75425 0.931346 5.75425 0.918 5.76018 0.912025C5.88238 0.789871 6.50625 0.731856 6.69583 0.684449C7.26716 0.541629 7.72137 0.247523 8.21302 0.00172155C8.27457 -0.0290535 8.50185 0.362407 8.51649 0.406279C8.71428 0.999619 8.99001 1.55566 9.27511 2.1258C10.1824 3.94043 11.0724 5.77099 11.9808 7.58781C12.0812 7.7885 12.7599 9.38317 13.0176 9.38317C13.0384 9.38317 12.9703 8.95765 12.967 8.92802C12.9376 8.6633 12.9417 8.38552 12.9417 8.11881C12.9417 7.31901 12.9201 6.51407 12.967 5.71656C13.044 4.40758 13.1187 3.111 13.1187 1.79708C13.1187 1.56293 12.9968 0.245432 13.0934 0.0522663C13.1138 0.0115317 13.2987 0.124423 13.321 0.128158C13.6987 0.191103 14.104 0.216549 14.4842 0.254595C14.7394 0.280091 15.686 0.0149676 15.875 0.204C15.9702 0.299213 15.9003 2.09149 15.9003 2.32812C15.9003 4.14729 15.9006 5.97521 16.0014 7.79009C16.0204 8.13186 15.7005 9.70288 15.9528 9.95525C15.9588 9.96118 16.4278 9.18677 16.5072 9.05446C16.8228 8.52849 17.296 8.05412 17.6957 7.58781C18.7668 6.33814 19.8959 5.05883 21.0588 3.89591C21.4387 3.516 21.7814 3.07151 22.1715 2.70743C22.4024 2.49181 22.8542 2.04995 22.8542 2.04995C23.207 2.83727 24.5561 3.34953 25.1806 3.89591C25.3514 4.04535 25.5689 4.20978 25.7622 4.32576C25.8774 4.39488 25.1621 5.11608 24.953 5.38785C24.3814 6.13093 23.452 6.77277 22.7025 7.33494C21.0682 8.56066 19.411 9.71059 17.8221 11.0016C17.7032 11.0982 16.3302 12.2395 16.3302 12.2406C16.3302 12.2827 16.4145 12.2406 16.4566 12.2406C16.6331 12.2406 16.8111 12.2735 16.9876 12.2912C17.4003 12.3324 17.8181 12.4137 18.2267 12.4682C19.7226 12.6676 21.1767 13.1136 22.6772 13.328C22.8491 13.3525 24.1821 13.3915 24.245 13.4544C24.2701 13.4794 24.2037 13.6795 24.1944 13.7073C23.9984 14.2955 23.972 14.9359 23.7898 15.5279C23.7074 15.7956 23.6423 16.0632 23.5875 16.3371C23.5786 16.382 23.5182 16.7829 23.4864 16.767C22.7046 16.3761 21.9385 16.2544 21.0588 16.059C19.9261 15.8072 18.813 15.3832 17.6957 15.0728C17.0182 14.8846 16.3201 14.6395 15.6474 14.4153C15.5085 14.369 14.6612 14.0542 14.6612 14.1118C14.6612 14.3655 14.9561 14.8353 14.9899 15.1739C15.1097 16.3709 15.2815 17.6319 15.6221 18.7899C15.8306 19.4989 16.1509 20.2101 16.2796 20.9393C16.3627 21.4101 16.9876 22.5324 16.9876 23.1722C16.6915 23.4637 14.2976 24.1412 14.1302 23.9738C14.087 23.9305 14.1426 23.707 14.1302 23.6451C14.0264 23.1261 13.9241 22.5985 13.8015 22.0772C13.3366 20.1015 13.0939 18.1037 12.7141 16.1095C12.649 15.7676 12.7266 13.8771 12.5129 13.6634C12.4986 13.6491 12.1729 13.9982 12.1578 14.036C12.0771 14.2377 12.009 14.3891 11.8797 14.567C11.558 15.0092 11.1694 15.439 10.8176 15.8566C9.42764 17.5072 7.81125 19.1512 6.13949 20.5094C5.6571 20.9014 5.13382 21.3554 4.72344 21.8244C4.66881 21.8868 4.15764 22.5482 4.14185 22.5324C3.90696 22.2975 2.65419 20.3663 2.49818 20.0543C2.45206 19.962 2.06389 19.3298 2.09357 19.2704C2.30626 18.845 2.91892 18.556 3.28209 18.2589C4.79868 17.0181 6.49151 15.8643 8.13718 14.7946C8.81692 14.3527 9.47753 13.8635 10.1602 13.4291C10.232 13.3833 10.944 13.106 10.944 13.0245C10.944 13.0215 10.3193 12.8331 10.2866 12.8222C9.52081 12.5669 8.60538 12.5607 7.80846 12.5187C6.04333 12.4259 4.21715 12.2744 2.44763 12.3924C2.34002 12.3995 0.578823 12.5212 0.525788 12.4682C0.418175 12.3606 0.680759 11.7186 0.702819 11.6084C0.821885 11.013 1.12715 9.19195 1.36025 8.72569C1.39401 8.65827 2.3581 8.6256 2.70046 8.59926C4.25096 8.47999 5.7174 8.80039 7.25212 8.90273C7.70887 8.93315 8.43512 8.95053 8.8452 9.1556C9.01247 9.23921 9.17506 9.24867 9.35095 9.30733C9.3865 9.31918 9.62907 9.38317 9.55328 9.38317Z" fill="#165274"/>
</svg>
