<svg width="25" height="24" viewBox="0 0 25 24" fill="none" xmlns="http://www.w3.org/2000/svg">
<path d="M1.41941 3.84632C0.185531 3.72303 0.323315 2.94411 1.07096 2.18279C2.50861 0.718859 4.48816 0.103609 5.90623 0.0067165C6.82948 -0.0563833 7.45382 0.325203 7.69011 1.14804C7.87118 1.7786 7.6358 2.67605 7.07091 3.61124C6.29809 4.89076 4.9295 6.34161 4.47686 7.06946C4.45766 7.10018 4.43701 7.14281 4.41669 7.19267C4.68151 7.03769 4.97801 6.81948 5.3025 6.59122C6.91162 5.45942 8.79646 3.74939 9.83688 3.17204C10.117 3.01734 11.9112 1.99644 12.6775 1.91885C13.3504 1.8507 13.7808 2.13988 14.013 2.48703C14.3026 2.92005 14.3732 3.44305 14.1961 4.01495C13.9287 4.87788 12.8211 5.98748 12.4888 6.40209C11.1505 8.05661 9.71145 9.59947 8.3718 11.2349C7.81815 11.9108 7.28067 12.6019 6.77782 13.3265C6.66939 13.4828 6.16741 14.1073 5.81813 14.7479C5.79379 14.7925 5.76908 14.8432 5.74552 14.8961C5.95491 14.8264 6.15874 14.7057 6.35871 14.5712C7.18726 14.0136 7.91637 13.1403 8.46642 12.6026C10.0075 11.0932 11.4793 9.47957 13.0543 7.98637C14.1424 6.95468 15.2775 5.97763 16.5247 5.1352C17.2438 4.62653 19.2011 3.35424 20.7727 2.94411C22.0007 2.62365 23.035 2.87051 23.6704 3.63599C24.1802 4.24942 24.2408 5.12866 23.9605 6.09184C23.5688 7.437 22.3845 8.99269 21.901 9.55219C20.9795 10.5935 19.9875 11.5874 18.9216 12.5144C17.4177 13.8222 15.7973 15.0127 14.3924 16.4033C13.8307 16.9594 13.2941 17.5368 12.8076 18.1588C12.5681 18.4686 11.6857 19.5188 11.064 20.5843C10.8941 20.8757 10.8591 21.2767 10.7846 21.5573C10.8849 21.5375 10.9884 21.509 11.0906 21.4861C11.6398 21.3627 12.1781 21.1037 12.5492 20.9027C13.9068 20.1663 15.025 19.4654 16.0714 18.6545C17.0957 17.8608 18.046 16.9576 19.0924 15.8193L21.7066 13.3265C23.3112 11.727 25.2407 13.7024 23.7271 15.2255L21.1798 17.6968C19.978 18.9244 18.8866 19.8891 17.7235 20.7375C16.5435 21.5982 15.2939 22.3438 13.7752 23.1157C13.1144 23.4524 12.0914 23.8715 11.1304 23.9739C10.2201 24.0708 9.36163 23.9032 8.71776 23.3823C8.13596 22.9116 7.87404 22.0915 8.17605 21.0375C8.60855 19.5281 10.336 17.1995 10.7105 16.6822C11.4834 15.5858 12.3782 14.587 13.3356 13.638C14.6068 12.3779 15.9577 11.1754 17.3272 10.0101C18.2023 9.26548 19.1033 8.56137 19.9152 7.76945C20.1687 7.52521 20.6599 7.01439 21.0867 6.41666C21.3299 6.07597 21.5681 5.71695 21.7066 5.3633C21.7519 5.24784 21.7979 5.13876 21.8139 5.03077C21.843 4.83304 21.6563 4.89805 21.4759 4.88333C21.0859 4.92528 20.6498 5.05551 20.2178 5.23024C19.1357 5.66798 18.0756 6.33883 17.6028 6.64637C16.4442 7.43114 15.3861 8.33775 14.3812 9.30395C12.8254 10.7999 11.392 12.4321 9.87892 13.9525C9.152 14.6844 8.12041 15.9101 6.98094 16.516C6.28922 16.8838 5.55575 17.043 4.81204 16.9108C3.8951 16.7482 3.53914 16.1952 3.49303 15.4729C3.46915 15.0985 3.58417 14.6215 3.80533 14.1327C4.18193 13.3004 4.87436 12.39 5.0118 12.1848C5.53382 11.4057 6.09153 10.6602 6.6696 9.93285C7.90137 8.38297 9.22634 6.91706 10.4703 5.36342C9.23803 6.19115 7.32508 7.90352 5.8355 8.78547C5.0429 9.2547 4.31872 9.50407 3.79053 9.49951C2.85692 9.4914 2.40912 9.04582 2.19883 8.49407C2.08891 8.20562 2.05354 7.85266 2.11337 7.47818C2.19924 6.94096 2.47679 6.33983 2.69957 5.99676C3.11021 5.36637 4.22563 4.19759 5.04435 3.06571C5.31411 2.69276 5.8355 2.18279 5.6927 1.99313C5.5499 1.80347 2.85588 3.3259 2.85588 3.3259C2.70006 3.41633 2.46045 3.57285 2.23025 3.67765C2.17436 3.71374 2.11221 3.74596 2.04355 3.77341C1.86057 3.84652 1.5348 3.85783 1.41941 3.84632Z" fill="#463F7F"/>
</svg>
